<svg width="1280" height="832" viewBox="0 0 1280 832" fill="none" xmlns="http://www.w3.org/2000/svg">
	<line x1="49" y1="4.92393e-08" x2="49" y2="832" stroke="#404040" stroke-width="1" />
	<line x1="114.778" y1="4.92393e-08" x2="114.778" y2="832" stroke="#404040" stroke-width="1" />
	<line x1="180.556" y1="4.92393e-08" x2="180.556" y2="832" stroke="#404040" stroke-width="1" />
	<line x1="246.333" y1="4.92393e-08" x2="246.333" y2="832" stroke="#404040" stroke-width="1" />
	<line x1="312.111" y1="4.92393e-08" x2="312.111" y2="832" stroke="#404040" stroke-width="1" />
	<line x1="377.889" y1="4.92393e-08" x2="377.889" y2="832" stroke="#404040" stroke-width="1" />
	<line x1="443.667" y1="4.92393e-08" x2="443.666" y2="832" stroke="#404040" stroke-width="1" />
	<line x1="509.444" y1="4.92393e-08" x2="509.444" y2="832" stroke="#404040" stroke-width="1" />
	<line x1="575.222" y1="4.92393e-08" x2="575.222" y2="832" stroke="#404040" stroke-width="1" />
	<line x1="641" y1="4.92393e-08" x2="641" y2="832" stroke="#404040" stroke-width="1" />
	<line x1="706.778" y1="4.92393e-08" x2="706.778" y2="832" stroke="#404040" stroke-width="1" />
	<line x1="772.556" y1="4.92393e-08" x2="772.556" y2="832" stroke="#404040" stroke-width="1" />
	<line x1="838.333" y1="4.92393e-08" x2="838.333" y2="832" stroke="#404040" stroke-width="1" />
	<line x1="904.111" y1="4.92393e-08" x2="904.111" y2="832" stroke="#404040" stroke-width="1" />
	<line x1="969.889" y1="4.92393e-08" x2="969.889" y2="832" stroke="#404040" stroke-width="1" />
	<line x1="1035.67" y1="4.92393e-08" x2="1035.67" y2="832" stroke="#404040" stroke-width="1" />
	<line x1="1101.44" y1="4.92393e-08" x2="1101.44" y2="832" stroke="#404040" stroke-width="1" />
	<line x1="1167.22" y1="4.92393e-08" x2="1167.22" y2="832" stroke="#404040" stroke-width="1" />
	<line x1="1233" y1="4.92393e-08" x2="1233" y2="832" stroke="#404040" stroke-width="1" />
	<line y1="-1" x2="1280" y2="-1" transform="matrix(-1 -5.06192e-09 5.64818e-09 1 1280 832)" stroke="#404040" stroke-width="1" />
	<line y1="-1" x2="1280" y2="-1" transform="matrix(-1 -5.06192e-09 5.64818e-09 1 1280 767.923)" stroke="#404040" stroke-width="1" />
	<line y1="-1" x2="1280" y2="-1" transform="matrix(-1 -5.06192e-09 5.64818e-09 1 1280 703.846)" stroke="#404040" stroke-width="1" />
	<line y1="-1" x2="1280" y2="-1" transform="matrix(-1 -5.06192e-09 5.64818e-09 1 1280 639.769)" stroke="#404040" stroke-width="1" />
	<line y1="-1" x2="1280" y2="-1" transform="matrix(-1 -5.06192e-09 5.64818e-09 1 1280 575.692)" stroke="#404040" stroke-width="1" />
	<line y1="-1" x2="1280" y2="-1" transform="matrix(-1 -5.06192e-09 5.64818e-09 1 1280 511.615)" stroke="#404040" stroke-width="1" />
	<line y1="-1" x2="1280" y2="-1" transform="matrix(-1 -5.06192e-09 5.64818e-09 1 1280 447.539)" stroke="#404040" stroke-width="1" />
	<line y1="-1" x2="1280" y2="-1" transform="matrix(-1 -5.06192e-09 5.64818e-09 1 1280 383.462)" stroke="#404040" stroke-width="1" />
	<line y1="-1" x2="1280" y2="-1" transform="matrix(-1 -5.06192e-09 5.64818e-09 1 1280 319.385)" stroke="#404040" stroke-width="1" />
	<line y1="-1" x2="1280" y2="-1" transform="matrix(-1 -5.06192e-09 5.64818e-09 1 1280 255.308)" stroke="#404040" stroke-width="1" />
	<line y1="-1" x2="1280" y2="-1" transform="matrix(-1 -5.06192e-09 5.64818e-09 1 1280 191.231)" stroke="#404040" stroke-width="1" />
	<line y1="-1" x2="1280" y2="-1" transform="matrix(-1 -5.06192e-09 5.64818e-09 1 1280 127.154)" stroke="#404040" stroke-width="1" />
	<line y1="-1" x2="1280" y2="-1" transform="matrix(-1 -5.06192e-09 5.64818e-09 1 1280 63.077)" stroke="#404040" stroke-width="1" />
</svg>